<?xml version="1.0" standalone="no"?><!DOCTYPE svg PUBLIC "-//W3C//DTD SVG 1.1//EN" "http://www.w3.org/Graphics/SVG/1.1/DTD/svg11.dtd"><svg t="1607307058288" class="icon" viewBox="0 0 1024 1024" version="1.1" xmlns="http://www.w3.org/2000/svg" p-id="1436" xmlns:xlink="http://www.w3.org/1999/xlink" width="200" height="200"><defs><style type="text/css"></style></defs><path d="M877.928282 1024H146.069459a37.647059 37.647059 0 0 1-37.647059-37.647059V50.447059a38.4 38.4 0 0 1 36.894118-37.647059L643.763576 0a43.670588 43.670588 0 0 1 27.858824 11.294118l232.658824 232.658823a35.388235 35.388235 0 0 1 11.294117 26.352941v716.047059a37.647059 37.647059 0 0 1-37.647059 37.647059zM183.716518 948.705882h656.564706V286.117647L630.210635 75.294118 183.716518 87.341176z" p-id="1437"></path><path d="M484.892988 301.176471H353.128282a37.647059 37.647059 0 0 1-37.647058-37.647059 37.647059 37.647059 0 0 1 37.647058-37.647059H484.892988a37.647059 37.647059 0 0 1 37.647059 37.647059 37.647059 37.647059 0 0 1-37.647059 37.647059zM656.563576 515.764706h-301.17647a37.647059 37.647059 0 0 1 0-75.294118h301.17647a37.647059 37.647059 0 0 1 0 75.294118zM656.563576 734.117647h-301.17647a37.647059 37.647059 0 0 1 0-75.294118h301.17647a37.647059 37.647059 0 1 1 0 75.294118z" p-id="1438"></path></svg>