<?xml version="1.0" standalone="no"?><!DOCTYPE svg PUBLIC "-//W3C//DTD SVG 1.1//EN" "http://www.w3.org/Graphics/SVG/1.1/DTD/svg11.dtd"><svg t="1607307137550" class="icon" viewBox="0 0 1208 1024" version="1.1" xmlns="http://www.w3.org/2000/svg" p-id="1573" xmlns:xlink="http://www.w3.org/1999/xlink" width="235.9375" height="200"><defs><style type="text/css"></style></defs><path d="M42.347823 1023.970357a42.347823 42.347823 0 0 1-42.347823-42.347823V821.547763a115.186078 115.186078 0 0 1 114.339122-115.186078h531.888655A115.186078 115.186078 0 0 1 762.260811 821.547763v32.184346a43.194779 43.194779 0 0 1-42.347823 42.347823 42.347823 42.347823 0 0 1-42.347822-42.347823V821.547763a30.490432 30.490432 0 0 0-30.490433-30.490432H114.339122A30.490432 30.490432 0 0 0 84.695646 821.547763v160.074771a42.347823 42.347823 0 0 1-42.347823 42.347823zM380.283449 650.462559a325.231279 325.231279 0 1 1 325.23128-325.23128 326.078236 326.078236 0 0 1-325.23128 325.23128z m0-565.766913a240.535634 240.535634 0 1 0 240.535634 240.535633A240.535634 240.535634 0 0 0 380.283449 84.695646z" p-id="1574"></path><path d="M1165.412085 1023.970357H719.066032a42.347823 42.347823 0 1 1 0-84.695646h376.895623L940.121667 639.452125a42.347823 42.347823 0 0 1 17.786086-56.746083 43.194779 43.194779 0 0 1 57.593039 17.786086l187.177377 361.650407a40.65391 40.65391 0 0 1 0 41.500867 41.500866 41.500866 0 0 1-37.266084 20.326955z" p-id="1575"></path><path d="M918.100799 643.686907a121.114773 121.114773 0 0 1-110.104339-70.297386l-38.959997-84.695645A122.808686 122.808686 0 0 1 762.260811 396.375622a121.96173 121.96173 0 0 1 155.839988-71.991299 121.96173 121.96173 0 0 1 68.603473 62.674778l38.959997 84.695646a116.879991 116.879991 0 0 1 0 92.318253 119.42086 119.42086 0 0 1-62.674777 68.603473 120.267817 120.267817 0 0 1-44.888693 11.010434z m-39.806953-242.229546a33.031302 33.031302 0 0 0-15.245216 0A38.113041 38.113041 0 0 0 846.956457 423.478229a35.572171 35.572171 0 0 0 0 27.949563l38.959997 84.695645a38.113041 38.113041 0 0 0 49.123475 17.786086 38.113041 38.113041 0 0 0 16.092172-45.735649l-38.959997-84.695645a38.113041 38.113041 0 0 0-21.173911-18.633043 31.337389 31.337389 0 0 0-12.704347-3.387825z" p-id="1576"></path><path d="M834.25211 541.205176a40.65391 40.65391 0 0 1-38.11304-24.561737 41.500866 41.500866 0 0 1 20.326955-55.899126l122.808686-57.593039a43.194779 43.194779 0 0 1 55.899126 21.173911 41.500866 41.500866 0 0 1-20.326955 55.899126l-122.808686 57.593039a44.041736 44.041736 0 0 1-17.786086 3.387826z" p-id="1577"></path></svg>