<?xml version="1.0" standalone="no"?><!DOCTYPE svg PUBLIC "-//W3C//DTD SVG 1.1//EN" "http://www.w3.org/Graphics/SVG/1.1/DTD/svg11.dtd"><svg t="1607307174208" class="icon" viewBox="0 0 1024 1024" version="1.1" xmlns="http://www.w3.org/2000/svg" p-id="1710" xmlns:xlink="http://www.w3.org/1999/xlink" width="200" height="200"><defs><style type="text/css"></style></defs><path d="M834.642952 1023.732474c-146.632462 0-354.101797-107.634467-540.512214-294.824844C35.964009 468.401021-71.670458 172.796217 50.003288 50.342512S468.061797 36.303234 728.568405 294.469962s366.581155 556.891372 244.12745 678.565118a186.410417 186.410417 0 0 1-138.052903 50.697394zM189.616111 78.421069a115.434066 115.434066 0 0 0-84.23567 28.078556c-77.995991 77.995991 4.679759 329.14308 244.12745 568.590771s491.37474 320.563521 568.590771 244.12745-4.679759-329.14308-244.12745-568.59077C492.240554 168.896418 303.490257 78.421069 189.616111 78.421069z" p-id="1711"></path><path d="M511.739551 604.114045a92.035269 92.035269 0 1 1 92.035269-92.035269 92.035269 92.035269 0 0 1-92.035269 92.035269z m0-106.074547a14.039278 14.039278 0 0 0-14.039278 14.039278c0 15.599198 28.078557 15.599198 28.078557 0a14.039278 14.039278 0 0 0-14.039279-14.039278z" p-id="1712"></path><path d="M188.836151 1023.732474a189.530257 189.530257 0 0 1-138.832863-50.697394c-121.673745-121.673745-14.039278-419.618429 244.12745-678.565118s556.891372-365.801196 678.565117-244.12745 14.819238 418.058509-244.12745 678.565118C546.057787 916.098007 335.468613 1023.732474 188.836151 1023.732474zM833.862992 78.421069C719.988846 78.421069 531.238549 168.896418 349.507891 349.847116c-239.447691 239.447691-320.563521 491.37474-244.12745 568.590771s329.14308-4.679759 568.590771-244.127451 320.563521-492.1547 244.12745-568.590771A115.434066 115.434066 0 0 0 833.862992 78.421069z" p-id="1713"></path></svg>